<?xml version="1.0" standalone="no"?>
<!DOCTYPE svg PUBLIC "-//W3C//DTD SVG 20010904//EN"
 "http://www.w3.org/TR/2001/REC-SVG-20010904/DTD/svg10.dtd">
<svg version="1.0" xmlns="http://www.w3.org/2000/svg"
 width="455.000000pt" height="291.000000pt" viewBox="0 0 455.000000 291.000000"
 preserveAspectRatio="xMidYMid meet">

<g transform="translate(0.000000,291.000000) scale(0.100000,-0.100000)"
fill="#000000" stroke="none">
<path d="M2269 2534 c-9 -11 -23 -31 -31 -47 l-14 -27 -33 35 c-33 36 -57 46
-48 21 3 -8 9 -57 13 -110 4 -52 11 -93 15 -90 5 3 6 43 3 90 -4 46 -4 84 -1
84 3 0 15 -16 27 -35 12 -19 25 -35 29 -35 4 0 13 19 20 41 16 51 25 42 41
-41 7 -36 17 -72 21 -80 14 -25 11 23 -6 98 -8 37 -15 78 -17 91 -3 23 -4 23
-19 5z"/>
<path d="M2530 2471 c0 -3 10 -11 22 -16 13 -6 24 -18 26 -27 3 -14 -4 -18
-30 -18 -41 0 -58 -15 -58 -51 0 -22 6 -30 33 -38 51 -17 63 -7 71 56 5 44 3
60 -9 73 -17 19 -55 33 -55 21z m50 -83 c-1 -36 -14 -58 -34 -58 -21 0 -46 17
-46 31 0 4 7 15 16 23 18 19 64 21 64 4z"/>
<path d="M1875 2336 c27 -58 53 -102 56 -100 10 6 -83 203 -96 204 -6 0 12
-47 40 -104z"/>
<path d="M1931 2396 c-7 -8 -13 -27 -14 -42 -2 -22 6 -33 38 -55 42 -30 55
-35 55 -21 0 5 -18 18 -40 31 -41 23 -53 54 -28 79 6 6 9 14 6 17 -3 3 -11 -1
-17 -9z"/>
<path d="M2796 2364 c-21 -20 -20 -26 4 -57 42 -53 15 -87 -40 -51 -22 14 -22
12 3 -10 39 -36 72 -35 75 3 1 16 -7 39 -18 54 -24 30 -25 41 -6 56 10 8 19 6
40 -10 14 -11 26 -16 26 -10 0 12 -40 41 -57 41 -6 0 -19 -7 -27 -16z"/>
<path d="M3033 2209 c-46 -54 -62 -94 -44 -112 8 -8 11 -5 11 13 0 13 12 41
26 62 21 30 30 36 41 27 18 -16 29 -3 14 15 -8 10 -9 16 -1 21 12 7 14 25 3
24 -5 0 -27 -23 -50 -50z"/>
<path d="M1641 2224 c-16 -21 -18 -30 -10 -46 10 -18 18 -20 61 -15 63 8 77
-14 32 -50 -21 -16 -24 -23 -12 -23 9 0 28 14 42 31 35 42 21 61 -43 58 -25
-1 -52 -1 -58 0 -22 2 -14 28 15 50 20 15 23 20 10 21 -9 0 -26 -12 -37 -26z"/>
<path d="M3153 2002 c-23 -15 -42 -34 -43 -43 0 -20 37 -69 52 -69 7 0 2 10
-10 23 -27 29 -28 53 -2 67 16 9 23 5 43 -25 l25 -36 28 25 c28 24 28 26 14
53 -21 38 -55 39 -107 5z m91 -4 c7 -12 6 -21 -3 -32 -19 -22 -30 -20 -43 10
-10 21 -9 27 3 35 18 11 30 7 43 -13z"/>
<path d="M1445 2000 c-10 -11 -15 -23 -11 -27 4 -5 12 0 17 10 6 9 21 17 35
17 21 0 23 -3 14 -19 -14 -26 -13 -64 2 -79 30 -30 88 3 88 49 0 21 -72 69
-103 69 -13 0 -32 -9 -42 -20z m123 -58 c5 -29 -31 -47 -52 -26 -19 18 -20 28
-5 55 9 18 13 19 32 6 12 -8 23 -24 25 -35z"/>
<path d="M2174 1931 c-31 -19 -74 -67 -74 -82 0 -5 65 -9 145 -9 80 0 145 3
145 6 0 4 -9 21 -20 39 -37 59 -136 83 -196 46z"/>
<path d="M1271 1779 c-7 -23 -15 -47 -18 -55 -3 -8 0 -14 6 -14 6 0 11 7 11
15 0 27 23 26 113 -4 51 -17 87 -25 85 -19 -3 7 -44 25 -92 41 -82 27 -87 31
-82 53 11 41 -10 26 -23 -17z"/>
<path d="M2064 1786 c-15 -61 -16 -61 184 -64 l182 -2 0 33 c0 55 -8 57 -192
57 l-168 0 -6 -24z"/>
<path d="M3288 1748 c-32 -11 -58 -24 -58 -29 0 -12 -2 -12 65 11 54 19 60 19
77 3 22 -20 24 -1 2 21 -19 19 -15 19 -86 -6z"/>
<path d="M2101 1658 c27 -98 123 -151 204 -113 39 19 79 71 90 118 l7 27 -155
0 -156 0 10 -32z"/>
<path d="M2365 1549 c-12 -19 -88 -49 -124 -49 -19 0 -54 11 -77 25 -43 26
-44 26 -100 9 -63 -18 -123 -66 -148 -118 -12 -25 -16 -64 -16 -145 l0 -111
239 0 239 0 16 25 c16 24 16 25 -7 25 -34 0 -47 19 -47 70 0 54 13 70 54 70
l29 0 -21 23 c-29 31 -28 40 9 82 34 39 53 43 87 19 20 -13 22 -14 22 0 0 19
-31 40 -85 56 -22 7 -45 17 -52 22 -7 6 -14 5 -18 -3z m-177 -191 c4 -111 -2
-120 -91 -116 l-72 3 -3 98 -3 98 83 -3 83 -3 3 -77z"/>
<path d="M2073 1403 c15 -2 39 -2 55 0 15 2 2 4 -28 4 -30 0 -43 -2 -27 -4z"/>
<path d="M2050 1315 l0 -45 55 0 55 0 0 45 0 45 -55 0 -55 0 0 -45z"/>
<path d="M2550 1466 c0 -46 -31 -58 -66 -25 l-25 23 -26 -27 -27 -26 23 -25
c33 -35 25 -60 -22 -64 -36 -3 -37 -4 -37 -42 0 -38 1 -39 37 -42 47 -4 55
-29 21 -65 l-23 -25 29 -24 28 -25 23 21 c34 32 59 23 63 -23 3 -37 4 -38 40
-35 34 3 37 6 40 35 5 47 33 59 62 28 l24 -25 23 22 c28 26 29 36 3 63 -29 30
-17 55 26 55 33 0 34 1 34 40 0 38 -2 40 -30 40 -40 0 -57 31 -30 55 25 23 25
47 0 70 -20 18 -21 18 -44 -4 -35 -33 -66 -21 -66 25 0 33 -1 34 -40 34 -39 0
-40 -1 -40 -34z m95 -131 c42 -41 30 -102 -25 -125 -79 -33 -147 64 -88 127
30 32 81 31 113 -2z"/>
<path d="M1280 1455 c-44 -47 -21 -126 40 -139 56 -11 99 26 100 85 0 73 -90
108 -140 54z"/>
<path d="M3319 1467 c-79 -60 -14 -181 79 -146 84 32 60 160 -30 159 -18 0
-40 -6 -49 -13z"/>
<path d="M1496 1136 c5 -22 0 -26 -90 -56 -53 -17 -94 -36 -91 -40 3 -5 45 5
93 21 89 30 112 31 112 4 0 -8 5 -15 11 -15 6 0 9 6 6 14 -3 8 -11 32 -18 55
-13 43 -34 58 -23 17z"/>
<path d="M3252 1090 c-1 -34 -1 -35 63 -56 36 -12 67 -18 70 -14 3 5 -24 18
-59 30 -56 18 -65 25 -69 48 -3 22 -4 21 -5 -8z"/>
<path d="M1950 1043 c-43 -15 -56 -97 -20 -133 18 -18 33 -20 140 -20 l120 0
0 80 0 80 -112 -1 c-62 0 -120 -3 -128 -6z"/>
<path d="M2220 970 c0 -47 2 -50 25 -50 23 0 25 3 25 50 0 47 -2 50 -25 50
-23 0 -25 -3 -25 -50z"/>
<path d="M2550 969 l0 -48 33 5 c53 9 57 12 57 43 0 25 -5 32 -27 36 -67 14
-63 17 -63 -36z"/>
<path d="M2300 970 c0 -19 7 -20 110 -20 103 0 110 1 110 20 0 19 -7 20 -110
20 -103 0 -110 -1 -110 -20z"/>
<path d="M1554 869 c8 -47 -1 -53 -36 -24 -35 30 -48 31 -79 6 -21 -17 -22
-21 -9 -50 21 -52 42 -56 95 -19 25 17 46 39 46 47 2 30 -3 56 -13 66 -7 7 -8
-1 -4 -26z m-48 -40 c19 -21 18 -21 -5 -40 -24 -20 -25 -20 -44 -1 -13 13 -17
26 -12 41 8 27 37 27 61 0z"/>
<path d="M3142 884 c-22 -15 -29 -49 -14 -69 4 -5 27 -25 51 -44 l44 -34 29
31 c15 18 28 42 28 55 0 18 -3 16 -18 -13 -19 -39 -39 -47 -65 -28 -16 12 -16
15 8 50 18 27 21 38 12 46 -24 19 -53 22 -75 6z m42 -10 c20 -8 20 -23 -1 -46
-21 -23 -30 -23 -43 1 -7 15 -6 23 6 35 18 18 17 18 38 10z"/>
<path d="M2930 704 c0 -3 26 -32 58 -65 43 -43 66 -59 85 -59 15 0 27 5 27 10
0 6 -12 10 -26 10 -28 0 -105 71 -84 78 5 2 10 11 10 19 0 13 -3 13 -15 3 -12
-10 -19 -10 -27 -2 -13 13 -28 16 -28 6z"/>
<path d="M1689 682 c-20 -17 -21 -22 -11 -52 25 -69 8 -89 -42 -49 -14 11 -26
16 -26 11 0 -13 42 -49 67 -56 18 -6 22 -2 28 24 4 18 2 44 -5 60 -13 31 -8
60 10 60 5 0 19 -9 31 -21 23 -23 39 -18 19 6 -26 31 -47 36 -71 17z"/>
<path d="M1941 608 c-5 -13 -25 -58 -45 -101 -32 -70 -45 -109 -31 -95 18 17
102 209 95 213 -6 4 -14 -4 -19 -17z"/>
<path d="M2772 554 c-44 -30 -21 -74 39 -74 47 0 72 -26 44 -46 -10 -8 -24
-14 -31 -14 -7 0 -16 -4 -19 -10 -13 -21 35 -9 65 16 30 26 31 28 13 45 -10
11 -36 19 -60 20 -32 2 -44 8 -49 22 -6 19 9 37 33 37 6 0 15 5 18 10 10 16
-28 12 -53 -6z"/>
<path d="M2172 503 c0 -16 -8 -57 -16 -93 -18 -74 -20 -100 -8 -100 5 0 15 33
22 73 16 92 25 110 38 77 6 -14 13 -33 16 -42 7 -23 23 -23 31 1 3 10 15 27
26 37 20 18 20 18 13 -74 -4 -58 -3 -92 3 -92 6 0 13 42 16 93 3 51 9 101 13
110 11 29 -17 19 -53 -20 -28 -29 -37 -33 -44 -22 -5 8 -9 21 -9 30 0 15 -29
49 -42 49 -3 0 -5 -12 -6 -27z"/>
<path d="M1960 513 c-35 -13 -49 -34 -39 -60 5 -13 9 -35 9 -49 0 -13 5 -24
11 -24 7 0 8 16 3 45 -7 52 6 75 42 75 13 0 24 5 24 10 0 11 -25 12 -50 3z"/>
<path d="M2504 463 c3 -4 14 -8 22 -9 46 -7 59 -28 24 -39 -53 -17 -69 -78
-24 -95 27 -10 70 -4 80 11 11 18 -17 119 -36 129 -21 11 -77 14 -66 3z m84
-106 c-2 -17 -10 -22 -33 -22 -25 0 -30 4 -30 25 0 31 45 58 58 34 5 -8 7 -25
5 -37z"/>
</g>
</svg>
